<?xml version="1.0" encoding="UTF-8"?>
<svg id="Layer_1" xmlns="http://www.w3.org/2000/svg" version="1.1" viewBox="0 0 500 500">
  <!-- Generator: Adobe Illustrator 29.5.1, SVG Export Plug-In . SVG Version: 2.1.0 Build 141)  -->
  <defs>
    <style>
      .st0 {
        fill: #724d0c;
      }
    </style>
  </defs>
  <path class="st0" d="M305.32,271.21v65.37c0,3.23.74,5.48,2.21,6.72,1.35,1.13,3.67,1.69,6.95,1.69h4.29v2.21h-36.45v-2.21h4.24c3.27,0,5.62-.59,7.03-1.77,1.42-1.19,2.11-3.41,2.11-6.64v-65.37h-9.2c-2.86,0-5,1.51-6.39,4.53-.68,1.46-1.38,4.24-2.09,8.3h-2.03l1.8-18.76h2.21c.19,1.16,1.39,1.74,3.61,1.74h32.5c2.18,0,3.37-.59,3.56-1.74h2.21l1.85,18.76h-2.09c-1.05-6.43-2.56-10.36-4.53-11.75-.97-.72-2.28-1.08-3.9-1.08h-7.91Z"/>
  <path class="st0" d="M381.24,237.77c0,1.02-.83,1.84-1.85,1.84h-1.76c-1.65,0-3.11.11-4.39.33-1.59.26-2.9.68-3.91,1.28-3.22,1.88-4.83,6.5-4.83,13.86v54.43s.14,20.11.15,38.57c.01,3.75.03,7.5.03,11.26,0,3.12.68,6.56-2.63,8.22-3.56,1.79-7.78,1.38-11.64,1.87-4.63.6-9.23,1.35-13.85,2-9.53,1.35-19.04,2.66-28.58,3.93-11.27,1.5-22.56,3.08-33.95,3.08-7.69.4-15.36.57-23.05.56h0c-.33-.01-.65,0-.97,0h-.98c-7.69.01-15.36-.16-23.05-.56-11.4,0-22.68-1.58-33.95-3.08-9.54-1.27-19.06-2.58-28.58-3.93-4.62-.65-9.21-1.4-13.85-2-3.86-.49-8.08-.08-11.64-1.87-3.31-1.66-2.63-5.1-2.63-8.22,0-3.76.01-7.51.03-11.26.01-18.47.15-38.57.15-38.57v-54.43c0-7.36-1.61-11.98-4.83-13.86-1.01-.6-2.32-1.02-3.91-1.28-1.28-.22-2.74-.33-4.39-.33h-1.76c-1.02,0-1.85-.82-1.85-1.84s.83-1.84,1.85-1.84h72.06c.97,0,1.78.76,1.84,1.73l.2,3.17,1.02,16.26.03.64h-2.96s-.01,0-.02-.02c-1.09-7.03-3.21-11.78-6.36-14.22-.2-.15-.43-.27-.67-.33-.66-.17-1.37-.25-2.1-.25h-32.71c-1.02,0-1.85.83-1.85,1.85v59.97c0,1.02.82,1.84,1.84,1.84h3.38c3.33-.07,5.68-1.29,7.13-3.67.91-1.49,1.54-3.82,1.88-7.05.08-.75.74-1.31,1.49-1.31h.27c.82,0,1.5.67,1.5,1.5v27.34c0,.82-.68,1.49-1.5,1.49h-.31c-.75,0-1.38-.56-1.49-1.31-.53-3.86-1.31-6.52-2.3-7.96-1.54-2.24-4.43-3.35-8.66-3.35h-1.38c-1.02,0-1.85.83-1.85,1.85v27.79s0,.02,0,.03c0,2.11,1.14,4.04,3.07,4.9l1.91.85,13.36,5.9c3.45,1.53,7.01,2.77,10.65,3.73,2.25.6,4.51,1.17,6.77,1.72,8.97,2.17,18.2,2.97,27.34,3.86,9.39.9,18.82,1.46,28.23,1.68,2.62.07,5.22.1,7.84.1h3.5c2.62,0,5.22-.03,7.84-.1,9.41-.22,18.84-.78,28.23-1.68,9.15-.89,18.37-1.69,27.34-3.86,2.26-.55,4.53-1.12,6.77-1.72,3.64-.97,7.2-2.21,10.65-3.73l13.36-5.9,1.91-.85c1.92-.86,3.07-2.8,3.07-4.9,0-.01,0-.02,0-.03v-27.79c0-1.02-.83-1.85-1.85-1.85h-1.38c-4.23,0-7.12,1.12-8.66,3.35-1,1.44-1.77,4.1-2.3,7.96-.11.75-.74,1.31-1.49,1.31h-.31c-.82,0-1.5-.67-1.5-1.49v-27.34c0-.83.68-1.5,1.5-1.5h.27c.75,0,1.4.56,1.49,1.31.34,3.23.97,5.56,1.88,7.05,1.44,2.37,3.8,3.6,7.13,3.67h3.37c1.02,0,1.85-.83,1.85-1.85v-59.97c0-1.02-.82-1.84-1.84-1.84h-32.73c-.73,0-1.44.08-2.1.25-.25.06-.47.18-.67.33-3.15,2.43-5.26,7.17-6.36,14.19l-.05.04c-.37,0-2.93,0-2.93,0l.03-.64,1.02-16.26.2-3.18c.06-.97.86-1.72,1.83-1.72h72.07c1.02,0,1.85.82,1.85,1.84Z"/>
  <polygon class="st0" points="250.01 364.69 248.25 364.69 248.25 364.67 250.01 364.69"/>
  <path class="st0" d="M250.97,378.99h0s-.97.01-.97.01c.31,0,.64-.01.97-.01Z"/>
  <path class="st0" d="M251.75,364.67h0s-1.74.01-1.74.01c.59,0,1.16,0,1.74-.01Z"/>
  <path class="st0" d="M191.14,245.79c-.45-.61-.93-1.14-1.42-1.62.5.48.98,1.02,1.42,1.62Z"/>
  <path class="st0" d="M194.01,251.88c.3.97.57,2.03.8,3.15-.25-1.12-.5-2.17-.8-3.15Z"/>
  <path class="st0" d="M227.26,329.6l-9.3,17.6h-41.57v-2.29h3.99c2.86,0,4.85-.6,5.94-1.8,1.1-1.2,1.65-3.24,1.65-6.15v-60.33c0-3.45-.71-5.82-2.14-7.12-1.43-1.29-3.9-1.95-7.39-1.95h-1.7v-2.29h35.53v2.29h-4.47c-2.44,0-4.38.2-5.85.64-1.46.41-2.44,1.02-2.97,1.85-.07.11-.12.22-.18.34-.56,1.17-.83,3-.83,5.47v62.5c0,2.99,1.59,4.48,4.77,4.48h5.51c4.12,0,7.55-1.59,10.29-4.77,1.38-1.57,3.56-4.39,6.53-8.48h2.18Z"/>
  <path class="st0" d="M282.47,149.81h0s-.04.01-.04.01c.01-.01.03-.01.04-.01Z"/>
  <path class="st0" d="M249.6,121c-9.77,0-17.72,7.93-17.72,17.72s7.95,17.72,17.72,17.72,17.72-7.93,17.72-17.72-7.93-17.72-17.72-17.72ZM259.09,150.16h-19.55v-.7h1.05c1.8,0,2.86-.41,3.19-1.23.18-.41.26-1.01.26-1.8v-15.51c0-1.39-.35-2.28-1.06-2.63-.41-.2-1.05-.31-1.87-.31h-.83v-.7h17.65l.31,5.11h-.67c-.35-2.52-1.28-3.78-2.73-3.78h-7.76v9.04h6.58c.78,0,1.34-.27,1.68-.85.23-.38.37-1.02.44-1.91h.71v6.98h-.71c-.1-1.05-.29-1.77-.53-2.14-.35-.52-1.01-.76-1.95-.76h-6.22v7.84c0,.75.15,1.28.42,1.57.29.3.8.45,1.57.45h5.67c1.55,0,2.64-.55,3.27-1.64.33-.59.65-1.43,1-2.52h.65l-.59,5.48Z"/>
  <g>
    <path class="st0" d="M256.42,175.97v175.51c-1.29,1.76-2.58,3.5-4.27,5.77-.04-4.12-.11-7.2-.11-10.29,0-55.9.04-111.78-.07-167.7-1.59,0-3.22-.03-4.88-.04.01,2.94.04,5.89.04,8.82-.04,52.89-.03,105.8-.03,158.7v10.51c-1.68-2.41-2.96-4.24-4.29-6.13v-175.15c1.44.03,2.86.04,4.25.05,1.1.01,2.19.01,3.27.01.55,0,1.09,0,1.64-.01,1.5,0,2.97-.01,4.44-.04Z"/>
    <g>
      <path class="st0" d="M352.62,169.51c-.12-.41-.25-.83-.37-1.24-.19.19-.41.34-.63.46.08.3.18.59.26.89,2.09,7.14,4.17,14.31,6.28,21.48.1.08.19.18.27.27.19.18.37.34.55.5.1.08.18.16.26.23-2.21-7.54-4.42-15.06-6.62-22.6ZM349.61,169.48l-.29.04v14.5s.01,0,.01.01c.16.1.3.2.45.3.15.11.31.23.45.34v-15.33c-.2.07-.41.11-.63.14ZM346.9,169.85c-.04.15-.08.3-.14.45-.98,3.38-1.98,6.77-2.97,10.15.11.07.22.14.34.2.11.07.22.14.33.19,1.04-3.54,2.07-7.1,3.11-10.66.05-.15.1-.3.14-.45-.27.04-.53.08-.8.11Z"/>
      <path class="st0" d="M366.79,218.1c-.38.89-.79,1.7-1.23,2.44-1.82,2.95-4.26,4.74-7.28,5.46-1,.23-2.02.34-3.06.35h-.53c-3.47.05-6.97.05-10.49,0-3.04-.03-5.85-.97-8.3-3.45-1.27-1.3-2.26-2.88-3.1-4.82,1.02-3.5,2.05-7.04,3.08-10.6,2.63-9.01,5.27-18.01,7.91-27.02.22.14.45.26.67.4-3.59,12.28-7.19,24.58-10.81,37.03,5.33.49,10.45.8,15.68.72v-34.59c.32.21.62.43.91.66v33.91c5.28.14,10.42-.23,15.73-.71-2.63-8.99-5.23-17.91-7.81-26.78.38.35.74.69,1.08,1.01,2.37,8.12,4.74,16.25,7.11,24.37.14.49.28,1,.45,1.61Z"/>
    </g>
    <g>
      <path class="st0" d="M152.49,170.36c-.03-.1-.05-.2-.08-.3-.27-.04-.53-.07-.79-.11.03.1.05.2.1.3,2,6.94,4.05,13.89,6.09,20.85.1.08.19.18.27.27.19.18.37.34.55.5.1.08.18.16.26.23-2.13-7.25-4.25-14.5-6.39-21.75ZM148.96,169.59v14.43s.01,0,.01.01c.16.1.3.2.45.3.15.11.31.23.45.34v-14.97c-.3-.04-.61-.08-.91-.12ZM146.76,169.05c-.05.18-.11.35-.15.53-1.06,3.63-2.13,7.25-3.19,10.88.11.07.22.14.34.2.11.07.22.14.33.19,1.09-3.72,2.18-7.46,3.26-11.18.04-.12.07-.25.11-.37-.25-.07-.48-.16-.7-.26Z"/>
      <path class="st0" d="M166.42,218.1c-.38.89-.79,1.7-1.23,2.44-1.82,2.95-4.26,4.74-7.28,5.46-1,.23-2.02.34-3.06.35h-.53c-3.47.05-6.97.05-10.49,0-3.04-.03-5.85-.97-8.3-3.45-1.27-1.3-2.26-2.88-3.1-4.82,1.02-3.5,2.05-7.04,3.08-10.6,2.63-9.01,5.27-18.01,7.91-27.02.22.14.45.26.67.4-3.59,12.28-7.19,24.58-10.81,37.03,5.33.49,10.45.8,15.68.72v-34.59c.32.21.62.43.91.66v33.91c5.28.14,10.42-.23,15.73-.71-2.63-8.99-5.23-17.91-7.81-26.78.38.35.74.69,1.08,1.01,2.37,8.12,4.74,16.25,7.11,24.37.14.49.28,1,.45,1.61Z"/>
    </g>
    <path class="st0" d="M357.65,154.03l-.11,3.8-.19,6.61c-.01.61-.15,1.2-.37,1.76-.31.82-.83,1.53-1.49,2.07-.19.19-.41.34-.63.46-.42.27-.89.49-1.39.61-.2.07-.41.11-.63.14-.08.01-.15.03-.23.03-.01.01-.04.01-.05.01-.22.03-.45.05-.68.1-.31.04-.63.08-.94.12-.25.04-.46.07-.71.1-.03.01-.07.01-.1.01-.27.04-.55.07-.82.11-.59.08-1.17.16-1.76.23-.27.04-.53.07-.8.11-5.37.71-10.86,1.36-16.48,1.96-1.06.12-2.11.27-3.16.46-1.72.31-3.45.61-5.21.9-.3.05-.6.11-.9.15-16.63,2.74-35.13,4.76-55.23,5.32-1.51.05-3.04.08-4.58.1-.35.01-.72.03-1.09.03-1.23.03-2.45.04-3.69.04-.79.01-1.58.01-2.39.01-.68,0-1.36,0-2.06-.01-1.59,0-3.22-.03-4.88-.04-.19-.01-.4-.01-.59-.01-1.21-.03-2.44-.05-3.69-.08-1.61-.04-3.24-.1-4.91-.16-1.46-.05-2.93-.12-4.44-.2-12.51-.63-26.44-1.89-41.51-4.2-1.02-.15-2.06-.27-3.09-.35-12.74-1.04-24.89-2.34-36.38-3.84-.26-.03-.52-.07-.78-.11-.5-.05-1.01-.12-1.51-.19-.11-.01-.22-.03-.33-.04-.16-.03-.31-.04-.46-.07-.15-.01-.3-.04-.45-.05-.44-.05-.86-.12-1.29-.18-.11-.01-.2-.03-.31-.04-.2-.03-.41-.05-.6-.08-.04-.01-.1-.01-.14-.01-.19-.04-.35-.05-.53-.08-.29-.04-.56-.1-.83-.19-.25-.07-.48-.16-.7-.26-1.79-.86-2.97-2.67-2.97-4.74v-10.54c0-3.71,3.75-6.24,7.2-4.85,6.72,2.7,14.67,5.59,23.72,8.29.38.03.79.04,1.23.04,1.05.23,2.11.48,3.19.71h.03c2.37.52,4.81,1.02,7.33,1.51t.03.01c19.31,3.78,42.88,6.76,69.73,6.76,1.08,0,2.14,0,3.22-.01,1.12-.01,2.22-.03,3.33-.04,1.13-.03,2.26-.05,3.41-.08,1.16-.03,2.33-.07,3.49-.11,1.19-.05,2.39-.1,3.57-.16,1.21-.04,2.44-.11,3.64-.19,1.25-.07,2.49-.14,3.73-.22,1.27-.08,2.54-.18,3.8-.27,1.29-.11,2.58-.22,3.87-.33,1.31-.12,2.63-.25,3.94-.37,1.35-.14,2.69-.27,4.02-.44,1.38-.15,2.74-.3,4.09-.46,1.38-.16,2.77-.34,4.16-.53.7-.1,1.39-.19,2.1-.3,1.55-.27,4.1-.75,5.66-1.02,16.02-3.69,29.62-8.36,40.43-12.69,3.5-1.4,7.29,1.24,7.17,5.02Z"/>
    <g>
      <path class="st0" d="M265.78,175.96c0,2.2.02,4.38.02,6.56-.02,46.99,0,93.96,0,140.95v10.42c-1.41,2.55-2.79,5.09-4.61,8.41v-10.9c0-48.47.02-96.94,0-145.43,0-3.33.04-6.67.04-10h4.56Z"/>
      <path class="st0" d="M238.08,236.11c-.22,31.11-.05,62.24-.05,93.35v11.26c-1.84-3.74-3.12-6.34-4.56-9.3v-9.72c0-45.19.02-90.37-.02-135.56,0-3.39.02-6.78.04-10.18h4.45c-.22,20.09.27,40.16.14,60.15Z"/>
    </g>
    <g>
      <path class="st0" d="M256.42,175.97v175.51c-1.29,1.76-2.58,3.5-4.27,5.77-.04-4.12-.11-7.2-.11-10.29,0-55.9.04-111.78-.07-167.7v-3.24c1.5,0,2.97-.01,4.44-.04Z"/>
      <path class="st0" d="M247.11,346.74v10.51c-1.68-2.41-2.96-4.24-4.29-6.13v-175.15h4.25v.05c.01,1.06.01,2.14.03,3.2.01,2.94.04,5.89.04,8.82-.04,52.89-.03,105.8-.03,158.7Z"/>
    </g>
  </g>
  <polygon class="st0" points="250.01 364.69 248.25 364.69 248.25 364.67 250.01 364.69"/>
  <path class="st0" d="M250.97,378.99h0s-.97.01-.97.01c.31,0,.64-.01.97-.01Z"/>
</svg>